<svg xmlns="http://www.w3.org/2000/svg" viewBox="0 0 256 256" role="img" aria-label="BBS logo">
  <defs>
    <linearGradient id="g" x1="0" y1="0" x2="1" y2="1">
      <stop offset="0%" stop-color="#0f5f8f" />
      <stop offset="100%" stop-color="#1883c2" />
    </linearGradient>
  </defs>
  <rect x="16" y="16" width="224" height="224" rx="28" fill="url(#g)" />
  <path d="M72 72h56c26 0 42 12 42 32 0 12-6 20-16 25 14 5 22 15 22 30 0 24-18 39-47 39H72V72zm52 51c12 0 19-5 19-14s-7-13-19-13H98v27h26zm4 51c14 0 22-6 22-16 0-11-8-17-22-17H98v33h30z" fill="#ffffff"/>
</svg>
